<svg xmlns="http://www.w3.org/2000/svg" width="66.333" height="66.333" viewBox="0 0 66.333 66.333"><path d="M30.08,58.41A28.33,28.33,0,1,1,58.41,30.08,28.361,28.361,0,0,1,30.08,58.41Zm0-51.132a22.8,22.8,0,1,0,22.8,22.8A22.828,22.828,0,0,0,30.08,7.278Z" transform="translate(3.087 3.087)"/><path d="M13.764,15.2A2.765,2.765,0,0,1,11,12.437V2.764a2.764,2.764,0,0,1,5.528,0v9.674A2.765,2.765,0,0,1,13.764,15.2Z" transform="translate(19.403)"/><path d="M30.937,16.528H21.264a2.764,2.764,0,0,1,0-5.528h9.674a2.764,2.764,0,0,1,0,5.528Z" transform="translate(32.632 19.403)"/><path d="M13.764,33.7A2.765,2.765,0,0,1,11,30.937V21.264a2.764,2.764,0,0,1,5.528,0v9.674A2.765,2.765,0,0,1,13.764,33.7Z" transform="translate(19.403 32.632)"/><path d="M12.437,16.528H2.764a2.764,2.764,0,0,1,0-5.528h9.674a2.764,2.764,0,1,1,0,5.528Z" transform="translate(0 19.403)"/><path d="M17.292,25.583a8.292,8.292,0,1,1,8.292-8.292A8.3,8.3,0,0,1,17.292,25.583Zm0-11.056a2.764,2.764,0,1,0,2.764,2.764A2.768,2.768,0,0,0,17.292,14.528Z" transform="translate(15.875 15.875)"/></svg>