<svg xmlns="http://www.w3.org/2000/svg" width="224.32" height="44.16" viewBox="0 0 224.32 44.16"><g id="Layer_2" data-name="Layer 2"><g id="Layer_1-2" data-name="Layer 1"><g id="Layer_2-2" data-name="Layer 2"><g id="Layer_1-2-2" data-name="Layer 1-2"><path d="M.87,24.19l18.67,19.1a2.87,2.87,0,0,0,4.06.07l.07-.07a3,3,0,0,0,0-4.22h0L10,25.07H111a3,3,0,0,0,0-6H10l13.69-14a3,3,0,0,0,0-4.22,2.89,2.89,0,0,0-4.08,0h0L.87,20a3,3,0,0,0,0,4.22Z" style="fill:#df172e"/><rect x="119.76" y="19.09" width="8" height="6" style="fill:#df172e"/><rect x="136.32" y="19.09" width="8" height="6" style="fill:#df172e"/><rect x="152.32" y="19.09" width="8" height="6" style="fill:#df172e"/><rect x="168.32" y="19.09" width="8" height="6" style="fill:#df172e"/><rect x="184.32" y="19.09" width="8" height="6" style="fill:#df172e"/><rect x="200.32" y="19.09" width="8" height="6" style="fill:#df172e"/><rect x="216.32" y="19.09" width="8" height="6" style="fill:#df172e"/></g></g></g></g></svg>