<svg xmlns="http://www.w3.org/2000/svg" width="224.32" height="44.16" viewBox="0 0 224.32 44.16"><g id="Layer_2" data-name="Layer 2"><g id="Layer_1-2" data-name="Layer 1"><g id="Layer_2-2" data-name="Layer 2"><g id="Layer_1-2-2" data-name="Layer 1-2"><path d="M223.45,20,204.78.88A2.87,2.87,0,0,0,200.72.8l-.07.08a3,3,0,0,0,0,4.22h0l13.69,14h-101a3,3,0,0,0,0,6h101l-13.69,14a3,3,0,0,0,0,4.22,2.88,2.88,0,0,0,4.07,0h0l18.72-19.17a3,3,0,0,0,0-4.22Z" style="fill:#df172e"/><rect x="96.56" y="19.08" width="8" height="6" style="fill:#df172e"/><rect x="80" y="19.08" width="8" height="6" style="fill:#df172e"/><rect x="64" y="19.08" width="8" height="6" style="fill:#df172e"/><rect x="48" y="19.08" width="8" height="6" style="fill:#df172e"/><rect x="32" y="19.08" width="8" height="6" style="fill:#df172e"/><rect x="16" y="19.08" width="8" height="6" style="fill:#df172e"/><rect y="19.08" width="8" height="6" style="fill:#df172e"/></g></g></g></g></svg>