<svg xmlns="http://www.w3.org/2000/svg" width="44.14" height="224.31" viewBox="0 0 44.14 224.31"><g id="Layer_2" data-name="Layer 2"><g id="Layer_1-2" data-name="Layer 1"><path d="M24.17,223.45l19.1-18.67a2.87,2.87,0,0,0,0-4.13,3,3,0,0,0-4.22,0h0l-14,13.69v-101a3,3,0,0,0-6,0v101l-14-13.69a3,3,0,0,0-4.22,0,2.88,2.88,0,0,0,0,4.08L20,223.45a3,3,0,0,0,4.22,0Z" style="fill:#df172e"/><rect x="19.07" y="96.56" width="6" height="8" style="fill:#df172e"/><rect x="19.07" y="80" width="6" height="8" style="fill:#df172e"/><rect x="19.07" y="64" width="6" height="8" style="fill:#df172e"/><rect x="19.07" y="48" width="6" height="8" style="fill:#df172e"/><rect x="19.07" y="32" width="6" height="8" style="fill:#df172e"/><rect x="19.07" y="16" width="6" height="8" style="fill:#df172e"/><rect x="19.07" width="6" height="8" style="fill:#df172e"/></g></g></svg>