<svg xmlns="http://www.w3.org/2000/svg" width="1250" height="1011.027" viewBox="0 0 1250 1011.027"><defs><style>.a{fill:#df172e;}</style></defs><path class="a" d="M824.457,83.141c61.1,92.3,45.06,275.055,74.846,429.2,30.549,155.065,106.923,280.593,111.5,414.429,4.582,132.913-63.39,272.286-162.675,311.052-100.049,38.766-230.648-24-339.1-62.764-107.687-38.766-192.461-53.534-261.2-104.3-68.736-49.842-122.2-136.6-169.549-242.75C30.175,722.783-11.067,598.178,2.68,480.033,17.191,361.889,87.455,249.282,176.811,168.981,266.932,87.756,376.146,36.991,500.634,12.993S763.359-9.159,824.457,83.141Z" transform="translate(1250) rotate(90)"/></svg>