<svg xmlns="http://www.w3.org/2000/svg" width="732.243" height="652.855" viewBox="0 0 732.243 652.855"><defs><style>.a{fill:#df172e;}</style></defs><path class="a" d="M411.358,14.094c31.5,25.542,33.63,94.079,70.666,146.866C519.06,213.32,590.577,249.5,613.139,298.886c22.988,49.381-2.98,111.958-52.361,143.034-48.955,31.5-121.324,31.5-175.387,39.164s-90.248,22.988-128.561,27.245c-38.739,3.831-79.18-3.831-127.709-14.9-48.1-11.068-104.3-25.542-122.175-60.875s2.98-91.1,15.325-139.629C35.041,244.4,39.724,203.1,48.663,152.871c9.365-50.232,22.562-109.83,58.321-132.818S201.063,9.837,260.235,7.708,380.282-11.874,411.358,14.094Z" transform="matrix(0.966, 0.259, -0.259, 0.966, 131.824, 0)"/></svg>