<svg xmlns="http://www.w3.org/2000/svg" width="721.026" height="583.182" viewBox="0 0 721.026 583.182"><defs><style>.a{fill:#df172e;}</style></defs><path class="a" d="M475.565,47.958c35.243,53.241,25.992,158.658,43.173,247.57,17.621,89.445,61.675,161.852,64.318,239.051C585.7,611.246,546.491,691.639,489.221,714c-57.71,22.361-133.042-13.843-195.6-36.2-62.116-22.361-111.016-30.88-150.664-60.162-39.648-28.75-70.486-78.8-97.8-140.023C17.405,416.917-6.384,345.042,1.546,276.893c8.37-68.148,48.9-133.1,100.443-179.422C153.972,50.62,216.969,21.337,288.777,7.495S440.322-5.283,475.565,47.958Z" transform="translate(721.026) rotate(90)"/></svg>