<svg xmlns="http://www.w3.org/2000/svg" width="34.408" height="57.941" viewBox="0 0 34.408 57.941"><defs><style>.a{fill:#df172e;}</style></defs><g transform="translate(57.367) rotate(90)"><path class="a" d="M55.223,224.432H2.716a2.716,2.716,0,1,1,0-5.432H55.223a2.716,2.716,0,1,1,0,5.432Zm0,0" transform="translate(0 -181.55)"/><path class="a" d="M226.719,168.037a2.718,2.718,0,0,1-1.92-4.639l12.566-12.565L224.8,138.267a2.717,2.717,0,0,1,3.842-3.842l14.485,14.485a2.717,2.717,0,0,1,0,3.842l-14.485,14.485A2.7,2.7,0,0,1,226.719,168.037Zm0,0" transform="translate(-185.981 -110.67)"/></g></svg>