<svg xmlns="http://www.w3.org/2000/svg" width="91.345" height="91.345" viewBox="0 0 91.345 91.345"><g transform="translate(0 0)"><path d="M78.77,24.017,90.56,12.242a2.676,2.676,0,0,0-1.891-4.57H83.316v-5a2.676,2.676,0,0,0-4.6-1.862L67.3,12.606a2.676,2.676,0,0,0-.754,1.862v6.2A40.083,40.083,0,1,0,70.679,24.8h6.2A2.676,2.676,0,0,0,78.77,24.017ZM64.9,75.821a34.9,34.9,0,1,1-1.963-51.2l-3.8,3.8a29.4,29.4,0,1,0,3.784,3.785l3.8-3.8A34.963,34.963,0,0,1,64.9,75.821Zm-24.6-32.8a8.01,8.01,0,1,0,7.247,4.565l3.916-3.916a13.5,13.5,0,0,1,2.211,7.465c0,12.326-14.838,17.725-23.013,9.551-8.156-8.156-2.809-23.013,9.551-23.013a13.5,13.5,0,0,1,7.467,2.212L43.765,43.8A8.009,8.009,0,0,0,40.3,43.017Zm2.673,8.026A2.673,2.673,0,1,1,40.3,48.369,2.665,2.665,0,0,1,42.976,51.042Zm8.546-15a18.707,18.707,0,1,0,3.784,3.785l3.815-3.815a24.041,24.041,0,1,1-3.784-3.785ZM71.9,19.447v-3.9l6.066-6.264v1.061a2.676,2.676,0,0,0,2.676,2.676H82.2l-6.431,6.423Z" transform="translate(0 0)"/></g></svg>