<svg xmlns="http://www.w3.org/2000/svg" width="579.106" height="474.51" viewBox="0 0 579.106 474.51"><path id="index_red_4" d="M322.405-53.98c29.348,23.8,31.331,87.648,65.835,136.826,34.5,48.781,101.132,82.492,122.152,128.5,21.416,46.005-2.776,104.3-48.781,133.256-45.609,29.348-113.03,29.348-163.4,36.487S214.134,402.5,178.441,406.468c-36.09,3.569-73.767-3.569-118.979-13.881-44.815-10.311-97.166-23.8-113.823-56.713S-51.585,251-40.084,205.79c11.9-45.212,16.26-83.682,24.589-130.48C-6.77,28.512,5.525-27.012,38.839-48.428s87.648-9.518,142.775-11.5S293.454-78.173,322.405-53.98Z" transform="translate(60.831 67.111)" fill="#df172e"></path></svg>