<svg xmlns="http://www.w3.org/2000/svg" xmlns:xlink="http://www.w3.org/1999/xlink" width="1019.606" height="858.999" viewBox="0 0 1019.606 858.999"><defs><style>.a{fill:url(#a);}</style><radialGradient id="a" cx="0.5" cy="0.5" r="0.5" gradientUnits="objectBoundingBox"><stop offset="0" stop-color="#727776"/><stop offset="1" stop-color="#464641"/></radialGradient></defs><path class="a" d="M-7134.812-207.813c-78.9-18.667-171.075-43.076-200.4-102.667s4.888-153.642,25.138-235.491c20.948-81.846,28.63-151.487,43.293-236.206,15.361-84.719,37.009-185.232,95.664-224,41.4-27.367,101.246-24.685,167-22,27.4,1.118,55.826,2.235,84.373,1.181,56.326-2.084,113.6-12.872,161.708-13h1.74c34.05.094,63.4,5.7,84.437,23.768,51.672,43.078,55.164,158.669,115.913,247.694,60.75,88.31,178.059,149.336,215.068,232.618,37.707,83.283-4.888,188.821-85.886,241.233-80.3,53.129-199.007,53.129-287.687,66.052s-148.033,38.77-210.878,45.949A337.926,337.926,0,0,1-6959.545-181C-7012.882-181-7069.356-192.464-7134.812-207.813Z" transform="translate(7346.606 1039.999)"/></svg>