<svg xmlns="http://www.w3.org/2000/svg" width="2135.248" height="983.032" viewBox="0 0 2135.248 983.032"><path id="start_curve_grey" d="M4086,788.588V370.967h-15.464L3950,0c.014.017,2.124,2.763,6.39,7.441,3.939,4.32,10.581,11.231,19.851,19.617a414.094,414.094,0,0,0,34.325,27.734,506.436,506.436,0,0,0,49.819,31.793c44.826,25.136,95.355,45.164,150.183,59.527,15.842,4.149,32.267,7.877,48.818,11.077,17.419,3.366,35.446,6.24,53.581,8.54,19.02,2.411,38.693,4.261,58.47,5.495,20.675,1.292,42.036,1.946,63.488,1.946,17.239,0,34.972-.423,52.705-1.257,18.289-.86,37.081-2.181,55.85-3.926,19.33-1.8,39.2-4.094,59.054-6.831,20.418-2.815,41.384-6.171,62.316-9.974,21.507-3.908,43.592-8.4,65.642-13.351,22.627-5.083,45.85-10.791,69.023-16.966,23.762-6.332,48.143-13.335,72.467-20.814,24.918-7.662,50.477-16.04,75.972-24.9,28.439-9.884,57.329-18.607,85.865-25.924,27.777-7.121,55.977-13.106,83.819-17.79,27.068-4.551,54.541-8,81.655-10.243,26.324-2.178,53.029-3.283,79.37-3.283,22.288,0,44.891.791,67.182,2.352,21.674,1.517,43.641,3.8,65.293,6.793,21.034,2.906,42.34,6.556,63.329,10.848,20.363,4.165,40.985,9.047,61.294,14.513,19.672,5.295,39.582,11.28,59.179,17.789,18.953,6.3,38.128,13.253,57,20.678,18.21,7.166,36.624,14.963,54.733,23.175,17.439,7.909,35.069,16.417,52.4,25.287,16.654,8.525,33.472,17.612,49.988,27.008,15.838,9.01,31.822,18.546,47.5,28.342,29.305,18.3,58.663,38.2,87.259,59.127a1556.1,1556.1,0,0,1,141.432,117.145h-338.2C5624.81,377.8,5246.51,429.006,4852,788.588c-160.02,145.851-298.437,194.457-411.926,194.445C4213.136,983.009,4086,788.588,4086,788.588ZM6085.247,370.967h0Zm0,0h0v0Z" transform="translate(-3950)" fill="#e6e6e6"></path></svg>