<svg xmlns="http://www.w3.org/2000/svg" width="58.5" height="69.333" viewBox="0 0 58.5 69.333"><defs><style>.a{fill:#fff;}</style></defs><path class="a" d="M96.83,11.227,70.289.207a2.708,2.708,0,0,0-2.077,0L41.67,11.227a2.708,2.708,0,0,0-1.67,2.5v13.4A45.356,45.356,0,0,0,68.227,69.133a2.709,2.709,0,0,0,2.047,0A45.356,45.356,0,0,0,98.5,27.124v-13.4A2.708,2.708,0,0,0,96.83,11.227Zm-3.747,15.9A39.948,39.948,0,0,1,69.25,63.683,39.949,39.949,0,0,1,45.417,27.124V15.536l23.833-9.9,23.833,9.9ZM66.257,36.253,77.9,24.613a2.708,2.708,0,1,1,3.83,3.83L68.172,42a2.708,2.708,0,0,1-3.83,0L56.772,34.43A2.708,2.708,0,0,1,60.6,30.6Z" transform="translate(-40 0)"/></svg>