<svg xmlns="http://www.w3.org/2000/svg" width="30.194" height="28.481" viewBox="0 0 30.194 28.481"><defs><style>.a{fill:#df172e;}</style></defs><g transform="translate(-0.001 -14.519)"><g transform="translate(0.001 14.519)"><path class="a" d="M29.582,36.344,18.9,16.686a4.428,4.428,0,0,0-7.615,0l-.017.031L.629,36.313A4.426,4.426,0,0,0,4.436,43H25.7a4.474,4.474,0,0,0,3.908-2.238A4.364,4.364,0,0,0,29.582,36.344ZM13.325,23.52a1.771,1.771,0,0,1,3.542,0V30.6a1.771,1.771,0,0,1-3.542,0V23.52ZM15.1,39.459A2.656,2.656,0,1,1,17.753,36.8,2.659,2.659,0,0,1,15.1,39.459Z" transform="translate(-0.001 -14.519)"/></g></g></svg>