<svg xmlns="http://www.w3.org/2000/svg" xmlns:xlink="http://www.w3.org/1999/xlink" width="2774.584" height="1543.404" viewBox="0 0 2774.584 1543.404"><defs><clipPath id="clip-path"><path id="Pfad_4069" data-name="Pfad 4069" d="M10111.9,1844.451s215.756-360.294,793.9-254.161,764.58-69.825,842.783-217.852,262.539-522.287,511.115-441.291,363.086,796,363.086,796-11.172,354.708-201.094,315.606-1167.814-416.5-1720.824,9.426-232.166,389.621-635.754,85.186S10111.9,1844.451,10111.9,1844.451Z" transform="translate(-9897.121 -919.804)" fill="#cecece" opacity="0.4"></path></clipPath></defs><g id="wheel_shape_grey" transform="matrix(0.999, 0.035, -0.035, 0.999, -2041.69, -8026.713)"><path id="Pfad_4065" data-name="Pfad 4065" d="M10111.9,1844.451s215.756-360.294,793.9-254.161,764.58-69.825,842.783-217.852,262.539-522.287,511.115-441.291,363.086,796,363.086,796-11.172,354.708-201.094,315.606-1167.814-416.5-1720.824,9.426-232.166,389.621-635.754,85.186S10111.9,1844.451,10111.9,1844.451Z" transform="translate(-7526.001 7029)" fill="#cecece"></path><g id="Gruppe_8" data-name="Gruppe 8" transform="translate(2371.12 7948.804)" opacity="0.15" clip-path="url(#clip-path)" style="mix-blend-mode: multiply;isolation: isolate"><path id="Pfad_4068" data-name="Pfad 4068" d="M10242.009,2067.064s509.93-372.4,1258.958-270.834,854.82,457.033,854.82,457.033l-2158.21,220.053Z" transform="translate(-9935.338 -972.316)" fill="#cecece" style="mix-blend-mode: multiply;isolation: isolate"></path></g></g></svg>